<svg id="Warstwa_1" data-name="Warstwa 1" xmlns="http://www.w3.org/2000/svg" viewBox="0 0 921.26 285.59"><defs><style>.cls-1{fill:#fbf5ee;}.cls-2,.cls-3{fill:#1e1e1c;}.cls-3{isolation:isolate;font-size:126.12px;font-family:DejaVuSerif, DejaVu Serif;letter-spacing:-0.11em;}</style></defs><rect class="cls-1" x="2" y="2.11" width="177.42" height="248.28" rx="16.28"/><path class="cls-2" d="M163.14,4a14.3,14.3,0,0,1,14.28,14.28V234a14.29,14.29,0,0,1-14.28,14.28H18.28A14.29,14.29,0,0,1,4,234V18.28A14.3,14.3,0,0,1,18.28,4H163.14m0-4H18.28A18.28,18.28,0,0,0,0,18.26V234a18.26,18.26,0,0,0,18.26,18.28H163.14A18.27,18.27,0,0,0,181.42,234V18.28A18.28,18.28,0,0,0,163.14,0Z" transform="translate(0 0.11)"/><text class="cls-3" transform="translate(34.18 241.87)">♣</text><rect class="cls-1" x="187.08" y="2" width="177.42" height="248.28" rx="16.28"/><path class="cls-2" d="M348.22,3.89A14.3,14.3,0,0,1,362.5,18.17V233.89a14.29,14.29,0,0,1-14.28,14.28H203.36a14.28,14.28,0,0,1-14.28-14.28V18.17A14.29,14.29,0,0,1,203.36,3.89H348.22m0-4H203.36a18.27,18.27,0,0,0-18.28,18.26V233.89a18.26,18.26,0,0,0,18.26,18.28H348.22a18.28,18.28,0,0,0,18.28-18.28V18.17A18.29,18.29,0,0,0,348.22-.11Z" transform="translate(0 0.11)"/><text class="cls-3" transform="translate(219.26 241.76)">♣</text><rect class="cls-1" x="371.92" y="2" width="177.42" height="248.28" rx="16.28"/><path class="cls-2" d="M533.06,3.89a14.3,14.3,0,0,1,14.28,14.28V233.89a14.29,14.29,0,0,1-14.28,14.28H388.2a14.29,14.29,0,0,1-14.28-14.28V18.17A14.3,14.3,0,0,1,388.2,3.89H533.06m0-4H388.2a18.28,18.28,0,0,0-18.28,18.26V233.89a18.26,18.26,0,0,0,18.26,18.28H533.06a18.27,18.27,0,0,0,18.28-18.28V18.17A18.28,18.28,0,0,0,533.06-.11Z" transform="translate(0 0.11)"/><text class="cls-3" transform="translate(404.1 241.76)">♣</text><rect class="cls-1" x="741.84" y="2.11" width="177.42" height="248.28" rx="16.28"/><path class="cls-2" d="M903,4a14.3,14.3,0,0,1,14.28,14.28V234A14.29,14.29,0,0,1,903,248.28H758.12A14.29,14.29,0,0,1,743.84,234V18.28A14.3,14.3,0,0,1,758.12,4H903m0-4H758.12a18.28,18.28,0,0,0-18.28,18.26V234a18.26,18.26,0,0,0,18.26,18.28H903A18.27,18.27,0,0,0,921.26,234V18.28A18.28,18.28,0,0,0,903,0Z" transform="translate(0 0.11)"/><text class="cls-3" transform="translate(774.02 241.87)">♣</text><rect class="cls-1" x="556.88" y="2" width="177.42" height="248.28" rx="16.28"/><path class="cls-2" d="M718,3.89A14.3,14.3,0,0,1,732.3,18.17V233.89A14.29,14.29,0,0,1,718,248.17H573.16a14.29,14.29,0,0,1-14.28-14.28V18.17A14.3,14.3,0,0,1,573.16,3.89H718m0-4H573.16a18.28,18.28,0,0,0-18.28,18.26V233.89a18.26,18.26,0,0,0,18.26,18.28H718a18.27,18.27,0,0,0,18.28-18.28V18.17A18.28,18.28,0,0,0,718-.11Z" transform="translate(0 0.11)"/><text class="cls-3" transform="translate(589.06 241.76)">♣</text></svg>