<svg id="Warstwa_1" data-name="Warstwa 1" xmlns="http://www.w3.org/2000/svg" viewBox="0 0 737.01 285.58"><defs><style>.cls-1{fill:#fbf5ee;}.cls-2,.cls-3,.cls-4{fill:#1e1e1c;}.cls-3,.cls-4,.cls-6,.cls-7{isolation:isolate;}.cls-3,.cls-6{font-size:153px;font-family:CardCharacters, Card Characters;letter-spacing:-0.11em;}.cls-4,.cls-7{font-size:126.12px;font-family:DejaVuSerif, DejaVu Serif;letter-spacing:-0.11em;}.cls-5,.cls-6,.cls-7{fill:#e20e18;}</style></defs><rect class="cls-1" x="372.75" y="2.1" width="177.42" height="248.28" rx="16.28"/><path class="cls-2" d="M533.89,4a14.29,14.29,0,0,1,14.28,14.28V234a14.28,14.28,0,0,1-14.28,14.28H389A14.29,14.29,0,0,1,374.75,234V18.28A14.3,14.3,0,0,1,389,4H533.89m0-4H389a18.28,18.28,0,0,0-18.28,18.26V234A18.27,18.27,0,0,0,389,252.28H533.89A18.27,18.27,0,0,0,552.17,234V18.28A18.28,18.28,0,0,0,533.89,0Z" transform="translate(0 0.1)"/><text class="cls-3" transform="translate(411.73 140.07)">8</text><text class="cls-4" transform="translate(404.93 241.86)">♣</text><rect class="cls-1" x="188.38" y="2.1" width="177.42" height="248.28" rx="16.28"/><path class="cls-5" d="M349.06,4a14.3,14.3,0,0,1,14.28,14.28V234a14.29,14.29,0,0,1-14.28,14.28H204.2A14.29,14.29,0,0,1,189.92,234V18.28A14.3,14.3,0,0,1,204.2,4H349.06m0-4H204.2a18.28,18.28,0,0,0-18.28,18.26V234a18.26,18.26,0,0,0,18.26,18.28H349.06A18.27,18.27,0,0,0,367.34,234V18.28A18.28,18.28,0,0,0,349.06,0Z" transform="translate(0 0.1)"/><text class="cls-6" transform="translate(226.9 140.07)">3</text><text class="cls-7" transform="translate(220.1 241.86)">♥</text><rect class="cls-1" x="2" y="2.1" width="177.42" height="248.28" rx="16.28"/><path class="cls-2" d="M163.14,4a14.3,14.3,0,0,1,14.28,14.28V234a14.29,14.29,0,0,1-14.28,14.28H18.28A14.29,14.29,0,0,1,4,234V18.28A14.3,14.3,0,0,1,18.28,4H163.14m0-4H18.28A18.28,18.28,0,0,0,0,18.26V234a18.26,18.26,0,0,0,18.26,18.28H163.14A18.27,18.27,0,0,0,181.42,234V18.28A18.28,18.28,0,0,0,163.14,0Z" transform="translate(0 0.1)"/><text class="cls-3" transform="translate(40.98 140.07)">3</text><text class="cls-4" transform="translate(34.18 241.86)">♣</text><rect class="cls-1" x="557.59" y="2.1" width="177.42" height="248.28" rx="16.28"/><path class="cls-5" d="M718.73,4A14.3,14.3,0,0,1,733,18.28V234a14.29,14.29,0,0,1-14.28,14.28H573.87A14.28,14.28,0,0,1,559.59,234V18.28A14.3,14.3,0,0,1,573.87,4H718.73m0-4H573.87a18.27,18.27,0,0,0-18.28,18.26V234a18.26,18.26,0,0,0,18.26,18.28H718.73A18.28,18.28,0,0,0,737,234V18.28A18.29,18.29,0,0,0,718.73,0Z" transform="translate(0 0.1)"/><text class="cls-6" transform="translate(596.57 140.07)">8</text><text class="cls-7" transform="translate(589.77 241.86)">♦</text></svg>