<svg id="Warstwa_1" data-name="Warstwa 1" xmlns="http://www.w3.org/2000/svg" viewBox="0 0 922.46 285.58"><defs><style>.cls-1{fill:#fbf5ee;}.cls-2,.cls-3,.cls-4{fill:#e20e18;}.cls-3,.cls-4{isolation:isolate;}.cls-3{font-size:153px;font-family:CardCharacters, Card Characters;letter-spacing:-0.11em;}.cls-4{font-size:126.12px;font-family:DejaVuSerif, DejaVu Serif;letter-spacing:-0.11em;}</style></defs><rect class="cls-1" x="2.46" y="2.1" width="177.42" height="248.28" rx="16.28"/><path class="cls-2" d="M163.14,3.89a14.3,14.3,0,0,1,14.28,14.28V233.89a14.29,14.29,0,0,1-14.28,14.28H18.28A14.29,14.29,0,0,1,4,233.89V18.17A14.3,14.3,0,0,1,18.28,3.89H163.14m0-4H18.28A18.28,18.28,0,0,0,0,18.15V233.89a18.26,18.26,0,0,0,18.26,18.28H163.14a18.27,18.27,0,0,0,18.28-18.28V18.17A18.28,18.28,0,0,0,163.14-.11Z" transform="translate(0 0.21)"/><text class="cls-3" transform="translate(40.98 140.07)">8</text><text class="cls-4" transform="translate(34.18 241.86)">♥</text><rect class="cls-1" x="187.99" y="2.1" width="177.42" height="248.28" rx="16.28"/><path class="cls-2" d="M348.68,3.89A14.3,14.3,0,0,1,363,18.17V233.89a14.29,14.29,0,0,1-14.28,14.28H203.82a14.28,14.28,0,0,1-14.28-14.28V18.17A14.29,14.29,0,0,1,203.82,3.89H348.68m0-4H203.82a18.27,18.27,0,0,0-18.28,18.26V233.89a18.26,18.26,0,0,0,18.26,18.28H348.68A18.28,18.28,0,0,0,367,233.89V18.17A18.29,18.29,0,0,0,348.68-.11Z" transform="translate(0 0.21)"/><text class="cls-3" transform="translate(226.52 140.07)">9</text><text class="cls-4" transform="translate(219.72 241.86)">♥</text><rect class="cls-1" x="373.39" y="2.1" width="177.42" height="248.28" rx="16.28"/><path class="cls-2" d="M534.07,3.89a14.29,14.29,0,0,1,14.28,14.28V233.89a14.28,14.28,0,0,1-14.28,14.28H389.21a14.29,14.29,0,0,1-14.28-14.28V18.17A14.31,14.31,0,0,1,389.21,3.89H534.07m0-4H389.21a18.28,18.28,0,0,0-18.28,18.26V233.89a18.27,18.27,0,0,0,18.26,18.28H534.07a18.27,18.27,0,0,0,18.28-18.28V18.17A18.28,18.28,0,0,0,534.07-.11Z" transform="translate(0 0.21)"/><text class="cls-3" transform="translate(366.96 140.07)">10</text><text class="cls-4" transform="translate(405.11 241.86)">♥</text><rect class="cls-1" x="558.44" y="2.1" width="177.42" height="248.28" rx="16.28"/><path class="cls-2" d="M719.12,3.89A14.29,14.29,0,0,1,733.4,18.17V233.89a14.28,14.28,0,0,1-14.28,14.28H574.26A14.29,14.29,0,0,1,560,233.89V18.17A14.31,14.31,0,0,1,574.26,3.89H719.12m0-4H574.26A18.28,18.28,0,0,0,556,18.15V233.89a18.27,18.27,0,0,0,18.26,18.28H719.12a18.27,18.27,0,0,0,18.28-18.28V18.17A18.28,18.28,0,0,0,719.12-.11Z" transform="translate(0 0.21)"/><text class="cls-3" transform="translate(596.96 140.07)">J</text><text class="cls-4" transform="translate(590.16 241.86)">♥</text><rect class="cls-1" x="743.49" y="2.1" width="177.42" height="248.28" rx="16.28"/><path class="cls-2" d="M904.18,3.89a14.31,14.31,0,0,1,14.28,14.28V233.89a14.29,14.29,0,0,1-14.28,14.28H759.32A14.28,14.28,0,0,1,745,233.89V18.17A14.29,14.29,0,0,1,759.32,3.89H904.18m0-4H759.32A18.27,18.27,0,0,0,741,18.15V233.89a18.26,18.26,0,0,0,18.26,18.28H904.18a18.28,18.28,0,0,0,18.28-18.28V18.17A18.29,18.29,0,0,0,904.18-.11Z" transform="translate(0 0.21)"/><text class="cls-3" transform="translate(782.02 140.07)">Q</text><text class="cls-4" transform="translate(775.22 241.86)">♥</text></svg>