<svg id="Warstwa_1" data-name="Warstwa 1" xmlns="http://www.w3.org/2000/svg" viewBox="0 0 920.92 285.69"><defs><style>.cls-1{fill:#fbf5ee;}.cls-2,.cls-3,.cls-4{fill:#e20e18;}.cls-3,.cls-4,.cls-5,.cls-7,.cls-8{isolation:isolate;}.cls-3,.cls-7{font-size:153px;font-family:CardCharacters, Card Characters;letter-spacing:-0.11em;}.cls-4,.cls-5,.cls-8{font-size:126.12px;font-family:DejaVuSerif, DejaVu Serif;letter-spacing:-0.11em;}.cls-5{fill:#e30613;}.cls-6,.cls-7,.cls-8{fill:#1e1e1c;}</style></defs><rect class="cls-1" x="2.46" y="2.1" width="177.42" height="248.28" rx="16.28"/><path class="cls-2" d="M163.14,3.89a14.3,14.3,0,0,1,14.28,14.28V233.89a14.29,14.29,0,0,1-14.28,14.28H18.28A14.29,14.29,0,0,1,4,233.89V18.17A14.3,14.3,0,0,1,18.28,3.89H163.14m0-4H18.28A18.28,18.28,0,0,0,0,18.15V233.89a18.26,18.26,0,0,0,18.26,18.28H163.14a18.27,18.27,0,0,0,18.28-18.28V18.17A18.28,18.28,0,0,0,163.14-.11Z" transform="translate(0 0.21)"/><text class="cls-3" transform="translate(40.98 140.07)">A</text><text class="cls-4" transform="translate(34.18 241.86)">♥</text><rect class="cls-1" x="372.38" y="2.21" width="177.42" height="248.28" rx="16.28"/><path class="cls-2" d="M533.06,4a14.3,14.3,0,0,1,14.28,14.28V234a14.29,14.29,0,0,1-14.28,14.28H388.2A14.29,14.29,0,0,1,373.92,234V18.28A14.3,14.3,0,0,1,388.2,4H533.06m0-4H388.2a18.28,18.28,0,0,0-18.28,18.26V234a18.26,18.26,0,0,0,18.26,18.28H533.06A18.27,18.27,0,0,0,551.34,234V18.28A18.28,18.28,0,0,0,533.06,0Z" transform="translate(0 0.21)"/><text class="cls-3" transform="translate(410.9 140.18)">A</text><text class="cls-5" transform="translate(404.1 241.97)">♦</text><rect class="cls-1" x="741.96" y="2.1" width="177.42" height="248.28" rx="16.28"/><path class="cls-2" d="M902.64,3.89a14.3,14.3,0,0,1,14.28,14.28V233.89a14.29,14.29,0,0,1-14.28,14.28H757.78a14.28,14.28,0,0,1-14.28-14.28V18.17A14.3,14.3,0,0,1,757.78,3.89H902.64m0-4H757.78A18.27,18.27,0,0,0,739.5,18.15V233.89a18.26,18.26,0,0,0,18.26,18.28H902.64a18.28,18.28,0,0,0,18.28-18.28V18.17A18.29,18.29,0,0,0,902.64-.11Z" transform="translate(0 0.21)"/><text class="cls-3" transform="translate(780.48 140.07)">2</text><text class="cls-5" transform="translate(773.68 241.86)">♦</text><rect class="cls-1" x="186.96" y="2.1" width="177.42" height="248.28" rx="16.28"/><path class="cls-6" d="M348.1,3.89a14.3,14.3,0,0,1,14.28,14.28V233.89a14.29,14.29,0,0,1-14.28,14.28H203.24A14.29,14.29,0,0,1,189,233.89V18.17A14.3,14.3,0,0,1,203.24,3.89H348.1m0-4H203.24A18.28,18.28,0,0,0,185,18.15V233.89a18.26,18.26,0,0,0,18.26,18.28H348.1a18.27,18.27,0,0,0,18.28-18.28V18.17A18.28,18.28,0,0,0,348.1-.11Z" transform="translate(0 0.21)"/><text class="cls-7" transform="translate(225.94 140.07)">A</text><text class="cls-8" transform="translate(219.14 241.86)">♠</text><rect class="cls-1" x="556.71" y="2.1" width="177.42" height="248.28" rx="16.28"/><path class="cls-6" d="M717.85,3.89a14.3,14.3,0,0,1,14.28,14.28V233.89a14.29,14.29,0,0,1-14.28,14.28H573a14.28,14.28,0,0,1-14.28-14.28V18.17A14.3,14.3,0,0,1,573,3.89H717.85m0-4H573a18.27,18.27,0,0,0-18.28,18.26V233.89A18.26,18.26,0,0,0,573,252.17H717.85a18.27,18.27,0,0,0,18.28-18.28V18.17A18.28,18.28,0,0,0,717.85-.11Z" transform="translate(0 0.21)"/><text class="cls-7" transform="translate(595.69 140.07)">2</text><text class="cls-8" transform="translate(588.89 241.86)">♣</text></svg>