<svg id="Warstwa_1" data-name="Warstwa 1" xmlns="http://www.w3.org/2000/svg" viewBox="0 0 362.84 285.58"><defs><style>.cls-1{fill:#fbf5ee;}.cls-2,.cls-3,.cls-4{fill:#1e1e1c;}.cls-3,.cls-4,.cls-6,.cls-7{isolation:isolate;}.cls-3,.cls-6{font-size:153px;font-family:CardCharacters, Card Characters;letter-spacing:-0.11em;}.cls-4,.cls-7{font-size:126.12px;font-family:DejaVuSerif, DejaVu Serif;letter-spacing:-0.11em;}.cls-5,.cls-6,.cls-7{fill:#e20e18;}</style></defs><rect class="cls-1" x="2" y="2.1" width="177.42" height="248.28" rx="16.28"/><path class="cls-2" d="M163.14,4a14.3,14.3,0,0,1,14.28,14.28V234a14.29,14.29,0,0,1-14.28,14.28H18.28A14.29,14.29,0,0,1,4,234V18.28A14.3,14.3,0,0,1,18.28,4H163.14m0-4H18.28A18.28,18.28,0,0,0,0,18.26V234a18.26,18.26,0,0,0,18.26,18.28H163.14A18.27,18.27,0,0,0,181.42,234V18.28A18.28,18.28,0,0,0,163.14,0Z" transform="translate(0 0.1)"/><text class="cls-3" transform="translate(40.98 140.07)">7</text><text class="cls-4" transform="translate(34.18 241.86)">♣</text><rect class="cls-1" x="183.42" y="2.1" width="177.42" height="248.28" rx="16.28"/><path class="cls-5" d="M344.56,4a14.3,14.3,0,0,1,14.28,14.28V234a14.29,14.29,0,0,1-14.28,14.28H199.7A14.29,14.29,0,0,1,185.42,234V18.28A14.3,14.3,0,0,1,199.7,4H344.56m0-4H199.7a18.28,18.28,0,0,0-18.28,18.26V234a18.26,18.26,0,0,0,18.26,18.28H344.56A18.27,18.27,0,0,0,362.84,234V18.28A18.28,18.28,0,0,0,344.56,0Z" transform="translate(0 0.1)"/><text class="cls-6" transform="translate(222.4 140.07)">7</text><text class="cls-7" transform="translate(215.6 241.86)">♥</text></svg>