<svg id="Warstwa_1" data-name="Warstwa 1" xmlns="http://www.w3.org/2000/svg" viewBox="0 0 921.26 285.58"><defs><style>.cls-1{fill:#fbf5ee;}.cls-2,.cls-3,.cls-4{fill:#1e1e1c;}.cls-3,.cls-4{isolation:isolate;}.cls-3{font-size:153px;font-family:CardCharacters, Card Characters;letter-spacing:-0.11em;}.cls-4{font-size:126.12px;font-family:DejaVuSerif, DejaVu Serif;letter-spacing:-0.11em;}</style></defs><rect class="cls-1" x="2" y="2.1" width="177.42" height="248.28" rx="16.28"/><path class="cls-2" d="M163.14,4a14.3,14.3,0,0,1,14.28,14.28V234a14.29,14.29,0,0,1-14.28,14.28H18.28A14.29,14.29,0,0,1,4,234V18.28A14.3,14.3,0,0,1,18.28,4H163.14m0-4H18.28A18.28,18.28,0,0,0,0,18.26V234a18.26,18.26,0,0,0,18.26,18.28H163.14A18.27,18.27,0,0,0,181.42,234V18.28A18.28,18.28,0,0,0,163.14,0Z" transform="translate(0 0.1)"/><text class="cls-3" transform="translate(40.98 140.07)">9</text><text class="cls-4" transform="translate(34.18 241.86)">♣</text><rect class="cls-1" x="187.78" y="2.1" width="177.42" height="248.28" rx="16.28"/><path class="cls-2" d="M348.92,4A14.31,14.31,0,0,1,363.2,18.28V234a14.29,14.29,0,0,1-14.28,14.28H204.06A14.28,14.28,0,0,1,189.78,234V18.28A14.29,14.29,0,0,1,204.06,4H348.92m0-4H204.06a18.26,18.26,0,0,0-18.28,18.26V234A18.26,18.26,0,0,0,204,252.28H348.92A18.28,18.28,0,0,0,367.2,234V18.28A18.29,18.29,0,0,0,348.92,0Z" transform="translate(0 0.1)"/><text class="cls-3" transform="translate(181.42 143.44)">10</text><text class="cls-4" transform="translate(219.96 241.86)">♣</text><rect class="cls-1" x="741.84" y="2.1" width="177.42" height="248.28" rx="16.28"/><path class="cls-2" d="M903,4a14.3,14.3,0,0,1,14.28,14.28V234A14.29,14.29,0,0,1,903,248.28H758.12A14.29,14.29,0,0,1,743.84,234V18.28A14.3,14.3,0,0,1,758.12,4H903m0-4H758.12a18.28,18.28,0,0,0-18.28,18.26V234a18.26,18.26,0,0,0,18.26,18.28H903A18.27,18.27,0,0,0,921.26,234V18.28A18.28,18.28,0,0,0,903,0Z" transform="translate(0 0.1)"/><text class="cls-3" transform="translate(780.82 140.07)">A</text><text class="cls-4" transform="translate(774.02 241.86)">♣</text><rect class="cls-1" x="556.88" y="2.1" width="177.42" height="248.28" rx="16.28"/><path class="cls-2" d="M718,4A14.3,14.3,0,0,1,732.3,18.28V234A14.29,14.29,0,0,1,718,248.28H573.16A14.29,14.29,0,0,1,558.88,234V18.28A14.3,14.3,0,0,1,573.16,4H718m0-4H573.16a18.28,18.28,0,0,0-18.28,18.26V234a18.26,18.26,0,0,0,18.26,18.28H718A18.27,18.27,0,0,0,736.3,234V18.28A18.28,18.28,0,0,0,718,0Z" transform="translate(0 0.1)"/><text class="cls-3" transform="translate(595.86 140.07)">k</text><text class="cls-4" transform="translate(589.06 241.86)">♣</text><rect class="cls-1" x="371.92" y="2.1" width="177.42" height="248.28" rx="16.28"/><path class="cls-2" d="M533.06,4a14.3,14.3,0,0,1,14.28,14.28V234a14.29,14.29,0,0,1-14.28,14.28H388.2A14.29,14.29,0,0,1,373.92,234V18.28A14.3,14.3,0,0,1,388.2,4H533.06m0-4H388.2a18.28,18.28,0,0,0-18.28,18.26V234a18.26,18.26,0,0,0,18.26,18.28H533.06A18.27,18.27,0,0,0,551.34,234V18.28A18.28,18.28,0,0,0,533.06,0Z" transform="translate(0 0.1)"/><text class="cls-3" transform="translate(410.9 140.07)">J</text><text class="cls-4" transform="translate(404.1 241.86)">♣</text></svg>