<?xml version="1.0" standalone="no"?>
<!DOCTYPE svg PUBLIC "-//W3C//DTD SVG 20010904//EN"
 "http://www.w3.org/TR/2001/REC-SVG-20010904/DTD/svg10.dtd">
<svg version="1.0" xmlns="http://www.w3.org/2000/svg"
 width="152.000000pt" height="178.000000pt" viewBox="0 0 152.000000 178.000000"
 preserveAspectRatio="xMidYMid meet">

<g transform="translate(0.000000,178.000000) scale(0.100000,-0.100000)"
fill="#000000" stroke="none">
<path d="M119 1697 c-29 -16 -54 -40 -74 -72 l-30 -48 -3 -661 c-2 -455 0
-677 8 -712 13 -59 54 -107 115 -135 37 -17 80 -19 614 -19 424 0 584 3 615
12 52 16 110 76 125 130 9 32 11 223 9 720 l-3 676 -30 43 c-16 23 -50 53 -74
66 l-44 23 -592 0 -592 0 -44 -23z m1228 -64 c20 -9 44 -30 54 -47 18 -30 19
-63 19 -699 0 -601 -2 -672 -16 -697 -37 -62 -15 -60 -654 -60 l-582 0 -39 39
-39 39 0 675 0 675 27 33 c50 59 37 58 641 59 497 0 558 -2 589 -17z"/>
<path d="M200 1500 c-35 -35 -27 -82 23 -131 23 -24 53 -57 67 -74 l25 -31 68
73 c56 61 67 79 67 108 0 66 -74 101 -115 55 l-18 -20 -22 20 c-27 26 -69 26
-95 0z"/>
<path d="M670 1409 c-36 -45 -110 -123 -165 -173 -228 -207 -264 -256 -273
-375 -6 -83 20 -149 81 -209 118 -115 288 -90 391 58 l18 25 -7 -45 c-11 -78
-69 -184 -131 -237 -38 -33 -54 -54 -52 -68 3 -19 10 -20 223 -20 l220 0 3 25
c2 19 -6 31 -33 49 -67 45 -134 154 -150 244 l-7 38 58 -59 c62 -61 108 -82
180 -82 63 0 109 18 158 61 70 62 91 108 91 204 0 130 -34 179 -273 394 -51
46 -125 121 -164 167 -38 46 -78 84 -87 84 -10 0 -46 -36 -81 -81z"/>
<path d="M1177 479 c-16 -29 -47 -63 -72 -81 l-45 -32 27 -14 c41 -21 63 -42
93 -90 l28 -42 11 29 c14 33 64 83 105 104 l30 14 -42 27 c-40 25 -92 89 -92
113 0 29 -17 18 -43 -28z"/>
</g>
</svg>
