<svg id="Warstwa_1" data-name="Warstwa 1" xmlns="http://www.w3.org/2000/svg" viewBox="0 0 181.42 285.58"><defs><style>.cls-1{fill:#fbf5ee;}.cls-2,.cls-3,.cls-4{fill:#1d1d1b;}.cls-3{font-size:153px;font-family:CardCharacters, Card Characters;letter-spacing:-0.11em;}.cls-4{font-size:126.12px;font-family:DejaVuSerif, DejaVu Serif;letter-spacing:-0.11em;}</style></defs><rect class="cls-1" x="2" y="2.1" width="177.42" height="248.28" rx="16.28"/><path class="cls-2" d="M163.14,4a14.3,14.3,0,0,1,14.28,14.28V234a14.29,14.29,0,0,1-14.28,14.28H18.28A14.29,14.29,0,0,1,4,234V18.28A14.3,14.3,0,0,1,18.28,4H163.14m0-4H18.28A18.27,18.27,0,0,0,0,18.28V234a18.27,18.27,0,0,0,18.28,18.28H163.14A18.28,18.28,0,0,0,181.42,234V18.28A18.28,18.28,0,0,0,163.14,0Z" transform="translate(0 0.1)"/><text class="cls-3" transform="translate(40.98 140.07)">6</text><text y="0.1"/><text class="cls-4" transform="translate(34.18 241.86)">♠</text></svg>